<?xml version="1.0" encoding="utf-8"?>
<!-- Generator: Adobe Illustrator 24.0.0, SVG Export Plug-In . SVG Version: 6.00 Build 0)  -->
<svg version="1.1" id="Capa_1" xmlns="http://www.w3.org/2000/svg" xmlns:xlink="http://www.w3.org/1999/xlink" x="0px" y="0px"
	 viewBox="0 0 450.6 386.3" style="enable-background:new 0 0 450.6 386.3;" xml:space="preserve">
<style type="text/css">
	.st0{fill:url(#SVGID_1_);}
	.st1{fill:url(#SVGID_2_);}
	.st2{fill:url(#SVGID_3_);}
	.st3{fill:url(#SVGID_4_);}
	.st4{fill:url(#SVGID_5_);}
	.st5{fill:url(#SVGID_6_);}
	.st6{fill:url(#SVGID_7_);}
	.st7{fill:url(#SVGID_8_);}
</style>
<g>
	<g>
		<g>
			<linearGradient id="SVGID_1_" gradientUnits="userSpaceOnUse" x1="111.9068" y1="167.2687" x2="338.7309" y2="167.2687">
				<stop  offset="0" style="stop-color:#222831"/>
				<stop  offset="0.6042" style="stop-color:#242A33"/>
				<stop  offset="0.8216" style="stop-color:#2B3039"/>
				<stop  offset="0.9763" style="stop-color:#363C44"/>
				<stop  offset="1" style="stop-color:#393E46"/>
			</linearGradient>
			<path class="st0" d="M338.7,218c-5.1,11.3-12.1,21.6-20.4,30.8c-8.4,9.1-18.2,17-28.9,23c-10.8,6.1-22.5,10.5-34.7,12.9
				c-6.1,1.2-12.3,2-18.5,2.3c-6.2,0.2-12.5,0-18.6-0.6c-24.7-2.8-48.5-13.6-66.9-30.6c-4.7-4.2-8.8-8.8-12.8-13.7
				c-3.9-4.9-7.5-10-10.5-15.5s-5.7-11.1-8-17c-2.2-5.9-3.9-12-5.1-18.1l-0.9-4.7l-0.6-4.7c-0.2-1.5-0.3-3.1-0.5-4.7l-0.2-2.3
				c-0.1-0.8-0.1-1.5-0.1-2.3c-0.3-6.3,0-12.5,0.6-18.8l0.3-2.3c0.1-0.8,0.2-1.5,0.3-2.3l0.8-4.7c0.6-3.1,1.3-6.1,2.3-9.2
				c1.7-6.1,3.8-12,6.5-17.7c10.4-23,28.4-42.3,50.4-54.7c5.5-3.1,11.3-5.8,17.2-8c5.9-2.2,12.1-3.9,18.2-5.1l4.7-0.9l4.7-0.6
				c1.5-0.2,3.1-0.3,4.7-0.5l2.3-0.2c0.8-0.1,1.6-0.1,2.3-0.1c6.3-0.3,12.7,0,19,0.7c12.6,1.4,25,4.9,36.6,10.2
				c5.8,2.7,11.3,5.8,16.6,9.3c5.3,3.5,10.3,7.5,14.9,11.7c1.4,1.4,1.5,3.6,0.2,5.1c-1.4,1.4-3.6,1.5-5.1,0.2l0,0l-0.1-0.1
				c-4.3-4.1-9.1-7.9-14-11.3s-10.1-6.4-15.6-8.9c-10.8-5.1-22.5-8.6-34.4-10c-5.9-0.8-12-1.1-18-0.9c-0.8,0-1.5,0-2.3,0.1l-2.3,0.2
				c-1.5,0.1-3,0.2-4.5,0.3l-4.5,0.5l-4.4,0.8c-5.9,1.1-11.7,2.7-17.4,4.7c-5.6,2.1-11.2,4.5-16.5,7.4c-21.1,11.6-38.7,30-48.9,51.9
				c-2.7,5.5-4.7,11.2-6.4,17c-1,2.9-1.5,5.9-2.3,8.8l-0.8,4.5c-0.2,0.7-0.2,1.5-0.3,2.3l-0.3,2.3c-0.7,6-1.1,12.1-0.9,18.2
				c0.1,0.8,0,1.5,0.1,2.3l0.2,2.3c0.1,1.5,0.2,3.1,0.4,4.5l0.6,4.5l0.8,4.5c1.1,5.9,2.7,11.8,4.7,17.6c2.1,5.7,4.6,11.3,7.5,16.6
				c2.9,5.4,6.3,10.4,10,15.3c3.8,4.8,7.8,9.4,12.3,13.5c17.7,16.8,41,27.7,65.3,30.8c6.1,0.8,12.2,1,18.4,1
				c6.1-0.2,12.2-0.9,18.2-2c12.1-2.3,23.8-6.5,34.6-12.4c10.8-5.9,20.7-13.6,29.1-22.5C326.4,239.4,333.4,229.1,338.7,218z"/>
		</g>
		<g>
			<linearGradient id="SVGID_2_" gradientUnits="userSpaceOnUse" x1="195.1014" y1="196.1779" x2="306.8051" y2="196.1779">
				<stop  offset="0" style="stop-color:#222831"/>
				<stop  offset="0.6042" style="stop-color:#242A33"/>
				<stop  offset="0.8216" style="stop-color:#2B3039"/>
				<stop  offset="0.9763" style="stop-color:#363C44"/>
				<stop  offset="1" style="stop-color:#393E46"/>
			</linearGradient>
			<path class="st1" d="M297.6,265.8c1.5-3.1,2.5-6.5,3.1-10s0.9-6.9,0.6-10.4s-1-6.8-2.3-10c-1.3-3.2-3.1-6.2-5.2-8.8
				c-4.3-5.4-10.1-9.3-16.3-12.4c-6.2-3.1-12.9-5.1-19.6-6.8l0.8,0.1l0,0c-1,0.2-1.8,0.2-2.7,0.3c-0.9,0.1-1.8,0.2-2.7,0.2
				c-1.8,0.1-3.5,0.2-5.2,0.2c-3.5,0-7-0.2-10.5-0.8c-6.9-1-13.8-3.1-20-6.6c-3.1-1.8-5.9-3.9-8.6-6.3c-2.6-2.5-4.9-5.2-6.8-8.3
				c-1-1.5-1.8-3.1-2.6-4.7c-0.4-0.8-0.7-1.6-1-2.4c-0.3-0.8-0.6-1.6-1-2.5c-1.2-3.4-2.1-6.8-2.7-10.2l0,0c-0.2-1,0.5-1.8,1.4-2.1
				c1-0.2,1.9-0.4,3-0.6c1-0.2,1.9-0.3,2.9-0.4c1.9-0.2,3.9-0.3,5.9-0.5c3.9-0.2,7.9-0.1,11.8,0.5c1.9,0.2,3.9,0.6,5.9,1
				c1,0.2,1.9,0.5,2.9,0.7c1,0.3,1.9,0.6,2.8,0.9c3.8,1.2,7.4,3,10.8,5.1l-2.7,2.1c-1.1-3.6-2.1-7.4-2.7-11.3s-0.9-7.6-0.8-11.5
				c0-3.9,0.3-7.7,1-11.5c0.3-1.9,0.7-3.8,1.2-5.6c0.2-1,0.5-1.8,0.8-2.8c0.2-0.5,0.3-1,0.5-1.4c0.2-0.4,0.3-1,0.6-1.4
				c0.4-1,1.4-1.4,2.3-1c0.1,0,0.1,0.1,0.2,0.1l0,0c3.3,1.8,6.5,3.8,9.6,5.9c3.1,2.2,5.9,4.7,8.5,7.5c2.7,2.8,4.9,5.8,6.8,9.2
				c1.9,3.3,3.4,6.9,4.4,10.5c1,3.7,1.6,7.5,1.7,11.3c0.1,3.8-0.2,7.6-0.8,11.3c-0.6,3.8-1.6,7.4-2.8,10.9c-0.6,1.8-1.3,3.5-2.1,5.2
				c-0.3,0.9-0.8,1.7-1.2,2.6s-0.8,1.7-1.4,2.6l-1.6-2.7l1-0.1h-0.2c0.8-0.1,1.7-0.3,2.5-0.5c0.9-0.2,1.7-0.5,2.6-0.6
				c1.7-0.5,3.4-1,5-1.8c3.3-1.4,6.4-3,9.3-4.9c5.9-3.9,10.8-9.2,14-15.3c1.6-3.1,2.8-6.3,3.6-9.8c0.4-1.7,0.7-3.5,1-5.2
				c0.2-0.9,0.2-1.8,0.2-2.7c0.1-0.9,0.1-1.8,0.2-2.7c0.2-7.1-0.7-14.2-2.4-21.2l2.3,1.3c-0.3,0.1-0.8,0.2-1.1,0.4
				c-0.4,0.2-0.8,0.3-1.2,0.5c-0.8,0.3-1.5,0.7-2.3,1c-1.5,0.8-3.1,1.6-4.5,2.6c-2.9,1.8-5.7,4-8.2,6.3c-1.3,1.2-2.5,2.4-3.6,3.7
				c-0.6,0.6-1.1,1.4-1.7,1.9c-0.6,0.6-1,1.4-1.6,2.1c-2.1,2.8-4,5.7-5.6,8.8l-3.2-1.7c1.8-3.2,3.8-6.3,5.9-9.3
				c0.6-0.7,1.1-1.4,1.7-2.2c0.6-0.7,1.2-1.4,1.8-2.1c1.2-1.4,2.5-2.7,3.9-3.9c2.7-2.5,5.6-4.8,8.8-6.8c1.5-1,3.2-1.9,4.8-2.8
				c0.8-0.4,1.7-0.8,2.5-1.2c0.4-0.2,0.9-0.3,1.3-0.5c0.5-0.2,0.9-0.3,1.4-0.5c1-0.3,1.9,0.2,2.3,1.2c0,0.1,0,0.1,0.1,0.1v0.1
				c1.8,7.2,2.8,14.6,2.5,22.2c0,1-0.1,1.8-0.2,2.8c-0.1,1-0.2,1.8-0.3,2.8c-0.2,1.8-0.6,3.7-1,5.5c-0.9,3.6-2.3,7.2-3.9,10.7
				c-3.5,6.8-8.9,12.5-15.2,16.6c-3.1,2.1-6.5,3.9-10,5.3c-1.8,0.7-3.5,1.4-5.3,1.8c-1,0.2-1.8,0.5-2.7,0.7c-1,0.2-1.8,0.4-2.8,0.6
				c-0.1,0-0.1,0-0.1,0l0,0l-1,0.1c-1,0.1-1.8-0.7-1.9-1.7c0-0.3,0.1-0.7,0.2-1l0,0c0.4-0.7,0.8-1.5,1.2-2.3
				c0.4-0.8,0.8-1.6,1.1-2.4c0.7-1.6,1.4-3.3,1.9-5c1.2-3.4,2.1-6.8,2.7-10.4c0.6-3.5,0.9-7.1,0.8-10.6c-0.1-3.5-0.6-7.1-1.6-10.4
				c-1-3.4-2.3-6.7-4.1-9.7c-1.8-3.1-3.9-5.9-6.3-8.5c-2.4-2.7-5.1-4.9-8-7.1c-2.9-2.1-5.9-4-9.2-5.7l2.5-0.9
				c-0.2,0.3-0.3,0.8-0.5,1.2c-0.2,0.4-0.3,0.8-0.5,1.3c-0.2,0.9-0.5,1.8-0.8,2.7c-0.5,1.8-0.9,3.5-1.2,5.4c-0.6,3.6-1,7.2-1,10.9
				c-0.1,3.6,0.2,7.3,0.8,10.9s1.4,7.2,2.5,10.7c0.3,1-0.2,1.9-1.2,2.3c-0.5,0.2-1,0.1-1.5-0.2l0,0c-3.1-2-6.4-3.6-10-4.8
				c-0.9-0.3-1.8-0.6-2.7-0.8c-1-0.2-1.8-0.5-2.7-0.6c-1.8-0.4-3.6-0.7-5.5-1c-3.7-0.5-7.5-0.6-11.3-0.4c-1.8,0.1-3.8,0.2-5.6,0.5
				c-1,0.1-1.8,0.2-2.8,0.3s-1.8,0.3-2.7,0.5l1.4-2.1c1.1,6.5,3.2,12.9,6.8,18.5s8.4,10.2,14.1,13.3c5.7,3.2,12.1,5.2,18.7,6.2
				c3.3,0.5,6.7,0.7,10,0.8c1.7,0,3.4-0.1,5-0.2c0.8-0.1,1.6-0.1,2.5-0.2s1.7-0.2,2.4-0.3l0,0h0.1c0.2-0.1,0.5,0,0.6,0.1
				c6.9,1.9,13.7,4.3,20.1,7.7c3.2,1.7,6.2,3.6,9.1,5.9c1.4,1.1,2.8,2.3,4.1,3.6s2.5,2.7,3.6,4.1c2.3,2.9,3.9,6.1,5.2,9.5
				c1.2,3.4,1.9,7,2.1,10.6c0.2,3.6-0.2,7.2-1,10.7c-0.8,3.5-1.9,6.9-3.5,10L297.6,265.8z"/>
		</g>
	</g>
	<g>
		<linearGradient id="SVGID_3_" gradientUnits="userSpaceOnUse" x1="155.5618" y1="324.4566" x2="178.3334" y2="324.4566">
			<stop  offset="0" style="stop-color:#222831"/>
			<stop  offset="0.6042" style="stop-color:#242A33"/>
			<stop  offset="0.8216" style="stop-color:#2B3039"/>
			<stop  offset="0.9763" style="stop-color:#363C44"/>
			<stop  offset="1" style="stop-color:#393E46"/>
		</linearGradient>
		<path class="st2" d="M167.3,322.8h11v14.4c-1.8,0.6-3.5,1-5,1.2s-3.2,0.4-4.8,0.4c-4.2,0-7.4-1.2-9.6-3.7c-2.2-2.5-3.3-6-3.3-10.6
			c0-4.5,1.3-8,3.8-10.5s6.1-3.8,10.7-3.8c2.8,0,5.6,0.6,8.2,1.7l-2,4.7c-2-1-4.1-1.5-6.3-1.5c-2.5,0-4.6,0.9-6.1,2.6
			c-1.5,1.7-2.3,4-2.3,6.9c0,3,0.6,5.3,1.9,6.9c1.2,1.6,3,2.4,5.4,2.4c1.2,0,2.5-0.1,3.7-0.4v-5.8h-5.3V322.8z"/>
		<linearGradient id="SVGID_4_" gradientUnits="userSpaceOnUse" x1="184.9372" y1="324.4661" x2="207.1016" y2="324.4661">
			<stop  offset="0" style="stop-color:#222831"/>
			<stop  offset="0.6042" style="stop-color:#242A33"/>
			<stop  offset="0.8216" style="stop-color:#2B3039"/>
			<stop  offset="0.9763" style="stop-color:#363C44"/>
			<stop  offset="1" style="stop-color:#393E46"/>
		</linearGradient>
		<path class="st3" d="M190.8,327.7v10.6h-5.9v-27.7h8.1c3.8,0,6.6,0.7,8.4,2.1s2.7,3.5,2.7,6.3c0,1.6-0.4,3.1-1.3,4.4
			c-0.9,1.3-2.2,2.3-3.8,3c4.2,6.2,6.9,10.3,8.2,12.1h-6.5l-6.6-10.6H190.8z M190.8,322.9h1.9c1.9,0,3.2-0.3,4.1-0.9
			c0.9-0.6,1.3-1.6,1.3-2.9c0-1.3-0.5-2.3-1.4-2.8s-2.3-0.8-4.2-0.8h-1.8V322.9z"/>
		<linearGradient id="SVGID_5_" gradientUnits="userSpaceOnUse" x1="209.3598" y1="324.4376" x2="235.7754" y2="324.4376">
			<stop  offset="0" style="stop-color:#222831"/>
			<stop  offset="0.6042" style="stop-color:#242A33"/>
			<stop  offset="0.8216" style="stop-color:#2B3039"/>
			<stop  offset="0.9763" style="stop-color:#363C44"/>
			<stop  offset="1" style="stop-color:#393E46"/>
		</linearGradient>
		<path class="st4" d="M235.8,324.4c0,4.6-1.1,8.1-3.4,10.6c-2.3,2.5-5.5,3.7-9.8,3.7c-4.3,0-7.5-1.2-9.8-3.7
			c-2.3-2.5-3.4-6-3.4-10.6s1.1-8.1,3.4-10.6s5.6-3.7,9.8-3.7c4.3,0,7.5,1.2,9.8,3.7C234.6,316.3,235.8,319.8,235.8,324.4z
			 M215.5,324.4c0,3.1,0.6,5.4,1.8,7c1.2,1.6,2.9,2.4,5.3,2.4c4.7,0,7-3.1,7-9.4c0-6.2-2.3-9.4-7-9.4c-2.3,0-4.1,0.8-5.3,2.4
			C216.1,319,215.5,321.3,215.5,324.4z"/>
		<linearGradient id="SVGID_6_" gradientUnits="userSpaceOnUse" x1="238.0336" y1="324.4661" x2="275.6068" y2="324.4661">
			<stop  offset="0" style="stop-color:#222831"/>
			<stop  offset="0.6042" style="stop-color:#242A33"/>
			<stop  offset="0.8216" style="stop-color:#2B3039"/>
			<stop  offset="0.9763" style="stop-color:#363C44"/>
			<stop  offset="1" style="stop-color:#393E46"/>
		</linearGradient>
		<path class="st5" d="M268.5,338.3h-6.7l-3.8-14.6c-0.1-0.5-0.4-1.6-0.7-3.2c-0.3-1.6-0.5-2.7-0.6-3.3c-0.1,0.7-0.3,1.8-0.6,3.3
			c-0.3,1.5-0.5,2.6-0.7,3.2l-3.7,14.5h-6.7l-7.1-27.7h5.8l3.5,15.1c0.6,2.8,1.1,5.2,1.3,7.3c0.1-0.7,0.2-1.8,0.5-3.3
			c0.3-1.5,0.5-2.7,0.8-3.5l4-15.5h5.6l4,15.5c0.2,0.7,0.4,1.8,0.7,3.2c0.3,1.4,0.5,2.7,0.6,3.7c0.1-1,0.3-2.2,0.6-3.7
			c0.3-1.5,0.5-2.7,0.8-3.6l3.5-15.1h5.8L268.5,338.3z"/>
		<linearGradient id="SVGID_7_" gradientUnits="userSpaceOnUse" x1="279.0985" y1="324.4661" x2="295.0766" y2="324.4661">
			<stop  offset="0" style="stop-color:#222831"/>
			<stop  offset="0.6042" style="stop-color:#242A33"/>
			<stop  offset="0.8216" style="stop-color:#2B3039"/>
			<stop  offset="0.9763" style="stop-color:#363C44"/>
			<stop  offset="1" style="stop-color:#393E46"/>
		</linearGradient>
		<path class="st6" d="M295.1,338.3h-16v-27.7h16v4.8H285v6.1h9.4v4.8H285v7.2h10.1V338.3z"/>
		<linearGradient id="SVGID_8_" gradientUnits="userSpaceOnUse" x1="300.8644" y1="324.4661" x2="321.4348" y2="324.4661">
			<stop  offset="0" style="stop-color:#222831"/>
			<stop  offset="0.6042" style="stop-color:#242A33"/>
			<stop  offset="0.8216" style="stop-color:#2B3039"/>
			<stop  offset="0.9763" style="stop-color:#363C44"/>
			<stop  offset="1" style="stop-color:#393E46"/>
		</linearGradient>
		<path class="st7" d="M300.9,310.6h8.6c3.9,0,6.8,0.6,8.6,1.7c1.8,1.1,2.7,2.9,2.7,5.3c0,1.7-0.4,3-1.2,4.1
			c-0.8,1.1-1.8,1.7-3.1,1.9v0.2c1.8,0.4,3,1.1,3.8,2.2c0.8,1.1,1.2,2.5,1.2,4.3c0,2.5-0.9,4.5-2.7,5.9s-4.3,2.1-7.4,2.1h-10.4
			V310.6z M306.7,321.6h3.4c1.6,0,2.7-0.2,3.5-0.7c0.7-0.5,1.1-1.3,1.1-2.4c0-1.1-0.4-1.8-1.2-2.3c-0.8-0.5-2-0.7-3.7-0.7h-3.1
			V321.6z M306.7,326.2v7.2h3.8c1.6,0,2.8-0.3,3.6-0.9c0.8-0.6,1.2-1.6,1.2-2.8c0-2.3-1.6-3.5-4.9-3.5H306.7z"/>
	</g>
</g>
</svg>
